<svg width="248" height="181" viewBox="0 0 248 181" fill="none" xmlns="http://www.w3.org/2000/svg">
<path d="M243.749 15H4L4.352 163H244L243.749 15Z" fill="#288EEA" stroke="#cccccc" stroke-width="8" stroke-miterlimit="10" stroke-linecap="round" stroke-linejoin="round"/>
<path d="M104 15H64V103H104V15Z" fill="white" stroke="#cccccc" stroke-width="8" stroke-miterlimit="10" stroke-linecap="round" stroke-linejoin="round"/>
<path d="M164 75L164 39L8 39L8 75L164 75Z" fill="white" stroke="#cccccc" stroke-width="8" stroke-miterlimit="10" stroke-linecap="round" stroke-linejoin="round"/>
<path d="M19.796 103L164 21.803V15H147.373L8 93.99L8.021 103H19.796Z" fill="#EE5281" stroke="#cccccc" stroke-width="8" stroke-miterlimit="10"/>
<path d="M164 103V96.403L19.43 15H8.022L8 24.216L147.01 103H164Z" fill="#EE5281" stroke="#cccccc" stroke-width="8" stroke-miterlimit="10"/>
<path d="M164 49.5879H8V64.4879H164V49.5879Z" fill="#EE5281" stroke="#cccccc" stroke-width="8" stroke-miterlimit="10" stroke-linecap="round" stroke-linejoin="round"/>
<path d="M93.5 15.2061H75.05V103H93.5V15.2061Z" fill="#EE5281" stroke="#cccccc" stroke-width="8" stroke-miterlimit="10" stroke-linecap="round" stroke-linejoin="round"/>
<path d="M68 119V143" stroke="white" stroke-width="8" stroke-miterlimit="10" stroke-linecap="round" stroke-linejoin="round"/>
<path d="M56 131H80" stroke="white" stroke-width="8" stroke-miterlimit="10" stroke-linecap="round" stroke-linejoin="round"/>
<path d="M200 35H192V43H200V35Z" fill="white"/>
<path d="M228 67H220V75H228V67Z" fill="white"/>
<path d="M220 91H212V99H220V91Z" fill="white"/>
<path d="M204 119H192V131H204V119Z" fill="white"/>
<path d="M192 75H184V83H192V75Z" fill="white"/>
</svg>
