<svg width="248" height="176" viewBox="0 0 248 176" fill="none" xmlns="http://www.w3.org/2000/svg">
<path d="M243.749 4H4L4.352 172H244L243.749 4Z" fill="#288EEA" stroke="#cccccc" stroke-width="8" stroke-miterlimit="10" stroke-linecap="round" stroke-linejoin="round"/>
<path d="M243.824 60H155.724V4H91.523V60H4L4.142 119.757H91.523V172H155.724V119.757H243.925L243.824 60Z" fill="white" stroke="#cccccc" stroke-width="8" stroke-miterlimit="10" stroke-linecap="round" stroke-linejoin="round"/>
<path d="M140 76H151.377L243.764 14.006L243.749 4H229.96L140 64.366V76Z" fill="#EE5281" stroke="#cccccc" stroke-width="8" stroke-miterlimit="10" stroke-linecap="round" stroke-linejoin="round"/>
<path d="M108 76H96.6231L4.23608 14.006L4.25108 4H18.0401L108 64.366V76Z" fill="#EE5281" stroke="#cccccc" stroke-width="8" stroke-miterlimit="10" stroke-linecap="round" stroke-linejoin="round"/>
<path d="M140 100H151.377L243.764 161.994L243.749 172H229.96L140 111.634V100Z" fill="#EE5281" stroke="#cccccc" stroke-width="8" stroke-miterlimit="10" stroke-linecap="round" stroke-linejoin="round"/>
<path d="M108 100H96.6231L4.23608 161.994L4.25108 172H18.0401L108 111.634V100Z" fill="#EE5281" stroke="#cccccc" stroke-width="8" stroke-miterlimit="10" stroke-linecap="round" stroke-linejoin="round"/>
<path d="M243.851 76H140V4H108V76H4L4.066 104H108V172H140V104H243.898L243.851 76Z" fill="#EE5281" stroke="#cccccc" stroke-width="8" stroke-miterlimit="10" stroke-linecap="round" stroke-linejoin="round"/>
</svg>
