<?xml version="1.0" encoding="UTF-8"?>
<svg width="358px" height="358px" viewBox="0 0 358 358" version="1.1" xmlns="http://www.w3.org/2000/svg" xmlns:xlink="http://www.w3.org/1999/xlink">
    <!-- Generator: Sketch 48.2 (47327) - http://www.bohemiancoding.com/sketch -->
    <title>download</title>
    <desc>Created with Sketch.</desc>
    <defs></defs>
    <g id="Page-1" stroke="none" stroke-width="1" fill="none" fill-rule="evenodd">
        <g id="download" fill="#702A76" fill-rule="nonzero">
            <g id="save-file" transform="translate(23.000000, 18.000000)">
                <path d="M269.545467,206 L269.545467,279.688586 L43.4545329,279.688586 L43.4545329,206 L0,206 L0,301.349674 C0,313.3047 9.71412807,323 21.7596469,323 L291.240353,323 C303.275078,323 313,313.31546 313,301.349674 L313,206 L269.545467,206 Z" id="Shape"></path>
                <path d="M153.052073,199.147689 L90.9715121,123.870165 C90.9715121,123.870165 81.525875,114.921164 91.7685214,114.921164 C102.011168,114.921164 126.750767,114.921164 126.750767,114.921164 C126.750767,114.921164 126.750767,108.901124 126.750767,99.6170762 C126.750767,73.1483533 126.750767,24.9772229 126.750767,5.33913808 C126.750767,5.33913808 125.361386,0 133.37456,0 C141.452357,0 176.833107,0 182.61681,0 C188.389742,0 188.260497,4.49611628 188.260497,4.49611628 C188.260497,23.5397626 188.260497,73.3753207 188.260497,98.9794059 C188.260497,107.279928 188.260497,112.662298 188.260497,112.662298 C188.260497,112.662298 208.099566,112.662298 220.550144,112.662298 C232.97918,112.662298 223.619707,122.03281 223.619707,122.03281 C223.619707,122.03281 170.801686,192.392706 163.434735,199.774551 C158.1357,205.124497 153.052073,199.147689 153.052073,199.147689 Z" id="Shape"></path>
            </g>
        </g>
    </g>
</svg>