<?xml version="1.0" encoding="UTF-8"?>
<svg width="801px" height="801px" viewBox="0 0 801 801" version="1.1" xmlns="http://www.w3.org/2000/svg" xmlns:xlink="http://www.w3.org/1999/xlink">
    <!-- Generator: Sketch 48.2 (47327) - http://www.bohemiancoding.com/sketch -->
    <title>Artboard</title>
    <desc>Created with Sketch.</desc>
    <defs>
        <polygon id="path-1" points="0 799.99998 799.99998 799.99998 799.99998 0 0 0"></polygon>
        <radialGradient cx="50%" cy="50%" fx="50%" fy="50%" r="0.166666667%" id="radialGradient-3">
            <stop stop-color="#FFFFFF" offset="0%"></stop>
            <stop stop-color="#00ADEF" offset="52%"></stop>
            <stop stop-color="#2C3364" offset="100%"></stop>
        </radialGradient>
    </defs>
    <g id="Page-1" stroke="none" stroke-width="1" fill="none" fill-rule="evenodd">
        <g id="Artboard">
            <g id="1588245218radial-sunbeams-3-freesvg.org">
                <g id="g929" transform="translate(400.333323, 400.333343) scale(-1, 1) rotate(-180.000000) translate(-400.333323, -400.333343) translate(0.333333, 0.333353)">
                    <g id="g1207">
                        <g id="g1239">
                            <g id="g1237-Clipped">
                                <mask id="mask-2" fill="white">
                                    <use xlink:href="#path-1"></use>
                                </mask>
                                <g id="path1211"></g>
                                <g id="g1237" mask="url(#mask-2)" fill="url(#radialGradient-3)" fill-rule="nonzero">
                                    <g id="g1235">
                                        <g id="g1233">
                                            <g id="g1231">
                                                <g id="g1229">
                                                    <polygon id="path1227" points="799.99998 0 0 0 0 799.99998 799.99998 799.99998"></polygon>
                                                </g>
                                            </g>
                                        </g>
                                    </g>
                                </g>
                            </g>
                        </g>
                    </g>
                    <path d="M799.99998,374.574657 C728.795982,363.027991 654.967984,354.859991 580.165319,354.694658 C480.035988,354.518658 407.573323,407.642656 398.013323,389.893324 C403.934657,405.27599 476.821321,361.698658 577.245319,368.451991 C653.443984,373.626657 728.183982,387.22399 799.99998,404.13999 L799.99998,374.574657 Z" id="path1127" fill="#FFFFFF" fill-rule="nonzero"></path>
                    <path d="M799.99998,437.513322 C731.350648,414.90799 659.57465,395.250657 585.590652,383.418657 C486.810654,367.655991 407.098656,408.63199 400.145323,389.562657 C403.829323,405.82399 482.515988,374.239991 580.546652,396.553323 C656.81065,413.93999 730.194648,439.871989 799.99998,468.651988 L799.99998,437.513322 Z" id="path1129" fill="#FFFFFF" fill-rule="nonzero"></path>
                    <path d="M799.99998,504.881321 C732.673315,469.782655 661.417317,437.105322 586.405319,412.658656 C491.387988,381.742657 406.530657,409.56799 402.374657,389.60399 C403.650657,406.357323 486.101321,387.605324 579.369319,424.847989 C657.667984,456.178655 731.137315,496.834654 799.99998,539.62532 L799.99998,504.881321 Z" id="path1131" fill="#FFFFFF" fill-rule="nonzero"></path>
                    <path d="M799.99998,581.671985 C733.058648,530.910653 660.937317,481.567988 582.621319,441.663989 C493.666654,396.369323 405.822657,410.446656 404.621323,390.05199 C403.434657,406.87999 487.487988,401.35599 573.730652,452.609322 C656.63065,501.915987 731.379982,562.401319 799.99998,623.409318 L799.99998,581.671985 Z" id="path1133" fill="#FFFFFF" fill-rule="nonzero"></path>
                    <path d="M799.99998,676.701316 C732.999982,604.526652 659.033317,531.143987 574.322652,469.705322 C493.557321,411.210656 404.94399,411.265323 406.806656,390.909324 C403.134657,407.41199 486.667988,415.17199 563.841319,479.123988 C655.119984,554.867986 731.599982,645.505317 799.99998,732.010648 L799.99998,676.701316 Z" id="path1135" fill="#FFFFFF" fill-rule="nonzero"></path>
                    <path d="M794.60798,799.99998 C793.745313,798.66798 792.878647,797.333313 792.010647,795.997313 C727.193315,696.237316 654.147984,588.211985 561.685319,496.094654 C491.075988,425.791989 403.937323,411.926656 408.849323,392.165324 C402.75199,407.88399 483.585321,428.637323 549.80532,503.750654 C630.765318,595.669318 693.630649,700.978649 749.043981,799.99998 L794.60798,799.99998 Z" id="path1137" fill="#FFFFFF" fill-rule="nonzero"></path>
                    <path d="M702.165316,799.99998 C659.25065,706.458649 609.815985,608.777318 545.074653,520.154654 C486.283988,439.805322 402.82399,412.49199 410.658656,393.801323 C402.28399,408.377323 478.449321,441.430656 532.135987,525.850654 C587.697319,613.285318 628.945318,708.277316 664.121317,799.99998 L702.165316,799.99998 Z" id="path1139" fill="#FFFFFF" fill-rule="nonzero"></path>
                    <path d="M624.287984,799.99998 C598.827985,713.793315 567.971986,625.073318 524.87332,541.28532 C479.325321,452.826655 401.614657,412.878656 412.16399,395.765323 C401.729323,408.78799 471.318655,453.195989 511.194654,544.870653 C547.294653,627.953318 571.667986,715.103982 590.887985,799.99998 L624.287984,799.99998 Z" id="path1141" fill="#FFFFFF" fill-rule="nonzero"></path>
                    <path d="M555.374653,799.99998 C543.91732,720.214649 527.854653,638.394651 501.630654,558.966653 C470.417322,464.553322 400.31199,413.10399 413.293323,397.997323 C401.093323,409.15999 462.427988,463.651988 487.546654,560.350653 C508.129321,639.682651 518.678654,720.862649 524.746654,799.99998 L555.374653,799.99998 Z" id="path1143" fill="#FFFFFF" fill-rule="nonzero"></path>
                    <path d="M491.630654,799.99998 C492.023988,725.383982 488.399988,648.72265 475.921321,572.762652 C459.805322,474.689321 398.94799,413.142656 413.990656,400.414657 C400.35999,409.438656 452.047989,472.541322 461.807988,571.925319 C469.289322,648.51065 467.773322,725.362649 462.293322,799.99998 L491.630654,799.99998 Z" id="path1145" fill="#FFFFFF" fill-rule="nonzero"></path>
                    <path d="M429.953323,799.99998 C441.177322,729.194648 448.834655,656.057317 448.363989,582.323985 C447.685322,482.962655 397.57199,412.926656 414.229323,402.92799 C399.554657,409.593323 440.374656,479.610655 434.557322,579.263986 C430.137323,654.421317 417.130656,728.523982 400.578657,799.99998 L429.953323,799.99998 Z" id="path1147" fill="#FFFFFF" fill-rule="nonzero"></path>
                    <path d="M367.450657,799.99998 C389.645324,731.662648 408.662656,660.469317 419.697323,587.443985 C434.493322,489.203988 396.210657,412.497323 414.002656,405.442657 C398.71999,409.617323 427.805323,484.714655 406.525323,582.218652 C390.05599,657.557317 364.846658,730.429315 336.511992,799.99998 L367.450657,799.99998 Z" id="path1149" fill="#FFFFFF" fill-rule="nonzero"></path>
                    <path d="M300.617326,799.99998 C335.233325,732.902648 367.141324,662.13465 390.609324,588.003985 C420.535989,493.279988 394.906657,411.88799 413.317323,407.866656 C397.826657,409.53199 414.61999,487.797321 378.445324,580.798652 C348.253325,658.239984 308.442659,731.286648 266.147993,799.99998 L300.617326,799.99998 Z" id="path1151" fill="#FFFFFF" fill-rule="nonzero"></path>
                    <path d="M224.545328,799.99998 C274.755993,733.189315 323.142659,661.45065 361.817324,583.985319 C406.138657,495.058654 393.72399,411.053323 412.194656,410.105323 C396.969323,409.282656 401.238657,488.751988 350.950658,574.963986 C303.069326,657.003984 243.650661,731.437315 183.199995,799.99998 L224.545328,799.99998 Z" id="path1153" fill="#FFFFFF" fill-rule="nonzero"></path>
                    <path d="M130.56533,799.99998 C202.123995,733.043982 274.267993,659.373317 334.057325,575.557319 C391.750657,494.637321 392.638657,410.00799 410.697323,412.081323 C396.109323,408.873323 387.870657,487.617321 324.747992,564.962653 C250.975994,655.26265 161.770663,731.529315 75.8759981,799.99998 L130.56533,799.99998 Z" id="path1155" fill="#FFFFFF" fill-rule="nonzero"></path>
                    <path d="M0.702666649,799.99998 C1.96533328,799.177313 3.22933325,798.353313 4.49599989,797.526647 C105.949331,731.274648 215.662661,656.829317 307.979992,562.861319 C377.650657,491.925321 391.769324,408.786656 408.88799,413.726656 C395.34799,408.32799 374.926657,484.377321 300.461326,550.943986 C208.038661,633.466651 100.871997,697.651983 0,754.390648 L0,799.99998 L0.702666649,799.99998 Z" id="path1157" fill="#FFFFFF" fill-rule="nonzero"></path>
                    <path d="M0,706.965316 C95.3639976,662.94265 194.843995,612.433318 284.23866,546.250653 C364.175991,487.021321 391.110657,407.429323 406.84399,414.993323 C394.66799,407.633323 362.713324,479.223988 278.689326,533.32932 C190.313329,590.162652 93.5466643,632.359984 0,668.485317 L0,706.965316 Z" id="path1159" fill="#FFFFFF" fill-rule="nonzero"></path>
                    <path d="M0,628.223984 C87.9973311,602.042652 178.459996,570.429319 263.39066,526.226654 C351.678658,480.195988 390.686657,405.949323 404.654657,415.861323 C394.11599,406.826656 351.478658,472.271988 259.95066,512.581321 C175.629329,549.66532 86.7066645,574.654652 0,594.451985 L0,628.223984 Z" id="path1161" fill="#FFFFFF" fill-rule="nonzero"></path>
                    <path d="M0,558.559986 C81.563998,546.72132 165.139996,530.22932 245.946661,503.189321 C340.439991,471.563988 390.50799,404.402657 402.397323,416.310656 C393.698657,405.901323 341.473325,463.742655 244.677327,489.213321 C163.878663,510.425321 80.919998,521.263987 0,527.583987 L0,558.559986 Z" id="path1163" fill="#FFFFFF" fill-rule="nonzero"></path>
                    <path d="M0,494.126654 C76.3573314,494.450654 154.779996,490.711988 232.299994,477.770655 C330.674658,461.337322 390.578657,402.857323 400.161323,416.362656 C393.461323,404.926657 332.933325,453.799989 233.238661,463.766655 C155.029329,471.549322 76.3919981,469.983988 0,464.438655 L0,494.126654 Z" id="path1165" fill="#FFFFFF" fill-rule="nonzero"></path>
                    <path d="M0,431.742656 C72.4973315,443.195989 147.38133,451.082655 222.791994,450.538655 C322.622659,449.753322 390.94399,401.318657 398.01599,416.038656 C393.410657,403.898657 326.006659,442.714656 225.877328,436.897322 C149.00133,432.414656 73.1493315,419.01599 0,402.085323 L0,431.742656 Z" id="path1167" fill="#FFFFFF" fill-rule="nonzero"></path>
                    <path d="M0,368.546657 C69.9533316,391.269324 142.85333,410.858656 217.623995,422.183989 C316.454659,437.091989 391.613324,399.874657 396.025323,415.386656 C393.562657,402.897323 320.891992,430.718656 222.815994,409.190656 C145.710663,392.25999 71.1479982,366.303991 0,337.301325 L0,368.546657 Z" id="path1169" fill="#FFFFFF" fill-rule="nonzero"></path>
                    <path d="M0,300.978659 C68.590665,336.410658 140.98133,369.250657 216.879995,393.40399 C312.238659,423.701323 392.49999,398.530657 394.234657,414.45599 C393.885323,401.89599 317.617325,418.101323 224.043994,381.381324 C144.819996,350.262658 70.1759982,309.315992 0,266.081327 L0,300.978659 Z" id="path1171" fill="#FFFFFF" fill-rule="nonzero"></path>
                    <path d="M0,223.941328 C68.1773316,275.231993 141.414663,324.983992 220.651994,364.843991 C310.149326,409.81599 393.638657,397.385323 392.677324,413.30399 C394.417323,400.997323 316.318659,405.134657 229.585328,354.090658 C145.775996,304.711992 69.8919983,243.698661 0,182.074662 L0,223.941328 Z" id="path1173" fill="#FFFFFF" fill-rule="nonzero"></path>
                    <path d="M0,128.750663 C68.194665,201.581328 143.20133,275.587993 228.799994,337.210658 C310.179992,395.786657 394.961323,396.469323 391.362657,411.989323 C395.105323,400.186657 316.963992,392.130657 239.269327,327.991992 C147.194663,251.93866 69.6999983,160.565329 0,73.3826648 L0,128.750663 Z" id="path1175" fill="#FFFFFF" fill-rule="nonzero"></path>
                    <path d="M1.75333329,0 C3.22133325,2.24266661 4.69599988,4.49066655 6.17866651,6.7466665 C72.7079982,107.889331 147.211996,217.743995 241.197327,311.165326 C312.430659,381.885324 396.45199,395.85999 390.294657,410.565323 C395.93599,399.570657 319.651992,379.343991 252.941327,303.697326 C169.927996,209.479995 105.438664,101.245331 48.2013321,0 L1.75333329,0 Z" id="path1177" fill="#FFFFFF" fill-rule="nonzero"></path>
                    <path d="M95.9679976,0 C140.283996,95.7999976 190.941329,196.302662 257.417327,287.359993 C316.669325,368.486657 398.02399,395.46399 389.46399,409.07199 C396.877323,399.09199 324.217325,367.087991 270.189327,281.81066 C213.237328,191.786662 170.999996,94.0119976 134.686663,0 L95.9679976,0 Z" id="path1179" fill="#FFFFFF" fill-rule="nonzero"></path>
                    <path d="M175.218662,0 C201.478662,88.4906645 232.998661,179.914662 277.171993,266.349327 C322.953325,355.851991 399.61999,395.349323 388.85199,407.53999 C397.890657,398.81999 330.603992,355.649324 290.650659,262.845327 C253.75866,177.029329 228.953328,87.1826645 209.162661,0 L175.218662,0 Z" id="path1181" fill="#FFFFFF" fill-rule="nonzero"></path>
                    <path d="M245.294661,0 C257.063994,82.0373313 273.307993,166.479996 300.009326,248.66266 C331.151992,344.319991 401.198657,395.61599 388.430657,406.002657 C398.918657,398.765323 338.694658,345.294658 313.833325,247.289327 C293.019993,165.158663 282.521326,81.367998 276.365326,0 L245.294661,0 Z" id="path1183" fill="#FFFFFF" fill-rule="nonzero"></path>
                    <path d="M310.059992,1.26217745e-29 C309.523992,76.7786647 312.858659,155.961329 325.262659,234.689327 C340.979991,334.098658 402.701323,396.053323 388.19199,404.462657 C399.961323,398.877323 348.290658,336.223992 339.151992,235.478661 C331.951992,156.109329 334.003992,76.7626647 339.835992,-3.78956116e-14 L310.059992,1.26217745e-29 Z" id="path1185" fill="#FFFFFF" fill-rule="nonzero"></path>
                    <path d="M372.759991,0 C360.985324,72.8519982 352.578658,148.391996 352.478658,224.861328 C352.367991,325.541325 404.030657,396.774657 388.118657,402.925323 C400.88399,399.18799 359.290658,328.775992 366.083991,227.817328 C371.377324,149.914663 385.365324,73.4559982 402.637323,0 L372.759991,0 Z" id="path1187" fill="#FFFFFF" fill-rule="nonzero"></path>
                    <path d="M436.378656,0 C413.26799,70.2173316 393.046657,143.658663 380.898657,219.361328 C364.959991,318.786659 405.209323,397.694657 388.205324,401.38799 C401.718657,399.665323 371.314657,323.069325 393.897323,224.418661 C411.785323,146.406663 438.446656,71.3573315 467.857322,0 L436.378656,0 Z" id="path1189" fill="#FFFFFF" fill-rule="nonzero"></path>
                    <path d="M504.477321,0 C468.611988,68.784229 435.027989,141.632472 409.874656,218.384727 C378.543991,314.077046 406.169323,398.739994 388.457324,399.857349 C402.426657,400.238666 384.141324,319.274396 421.929323,225.391417 C454.175989,145.324484 495.933321,70.2909007 539.61732,0 L504.477321,0 Z" id="path1191" fill="#FFFFFF" fill-rule="nonzero"></path>
                    <path d="M582.190652,0 C530.422653,68.2839983 479.787988,141.894663 438.677322,221.945328 C392.74799,311.519992 406.946656,399.830657 388.88799,398.326657 C403.00799,400.886657 397.465323,317.505325 449.498655,230.723994 C500.287987,146.078663 562.302653,69.9053316 624.414651,0 L582.190652,0 Z" id="path1193" fill="#FFFFFF" fill-rule="nonzero"></path>
                    <path d="M678.39465,0 C605.035985,68.2239983 529.866653,143.511996 466.595988,229.966661 C407.206656,311.189326 407.530656,400.99999 389.50799,396.81199 C403.457323,401.566657 410.97199,317.865325 475.926655,240.350661 C553.926653,147.31733 646.673317,69.6386649 734.365315,0 L678.39465,0 Z" id="path1195" fill="#FFFFFF" fill-rule="nonzero"></path>
                    <path d="M799.99998,7.48533315 C797.89598,8.85733311 795.786647,10.2346664 793.670647,11.6199997 C694.237316,76.7199981 586.101319,149.84533 492.954654,242.330661 C421.606656,313.215992 407.857323,402.169323 390.33599,395.32799 C403.713323,402.253323 424.309323,320.411992 500.554654,254.033327 C594.230652,172.550662 700.603982,109.359997 799.99998,53.4386653 L799.99998,7.48533315 Z" id="path1197" fill="#FFFFFF" fill-rule="nonzero"></path>
                    <path d="M799.99998,100.703997 C706.013316,143.954663 607.303985,193.554662 517.067987,258.629327 C435.575989,317.442659 408.09599,403.349323 391.40399,393.921323 C403.934657,402.930657 437.139989,325.005325 522.755987,271.395993 C611.817318,215.713328 707.809316,174.409329 799.99998,139.011997 L799.99998,100.703997 Z" id="path1199" fill="#FFFFFF" fill-rule="nonzero"></path>
                    <path d="M799.99998,179.087996 C713.286649,204.639995 623.609318,235.461327 538.339987,278.56666 C448.718655,323.882659 408.13999,404.44399 392.706657,392.61199 C404.02399,403.534657 449.087989,331.623992 541.96932,292.093326 C626.515984,256.137327 714.602649,231.915994 799.99998,212.689328 L799.99998,179.087996 Z" id="path1201" fill="#FFFFFF" fill-rule="nonzero"></path>
                    <path d="M799.99998,248.41866 C719.710649,259.805327 637.014651,275.65466 556.237319,301.603992 C460.739988,332.363992 408.05999,405.558657 394.253323,391.46399 C404.038657,404.141323 459.886655,340.110658 557.702653,315.561325 C638.351984,295.361326 720.382649,285.135993 799.99998,279.217326 L799.99998,248.41866 Z" id="path1203" fill="#FFFFFF" fill-rule="nonzero"></path>
                    <path d="M799.99998,312.542659 C724.915982,311.937326 647.46265,315.177325 570.301319,327.185325 C471.274655,342.643991 407.918656,406.59999 396.033323,390.538657 C404.050657,404.738657 469.250655,350.146658 569.595986,341.179991 C647.349317,334.273325 724.942649,336.255992 799.99998,342.015991 L799.99998,312.542659 Z" id="path1205" fill="#FFFFFF" fill-rule="nonzero"></path>
                </g>
            </g>
        </g>
    </g>
</svg>