<?xml version="1.0" encoding="UTF-8"?>
<svg width="128px" height="128px" viewBox="0 0 128 128" version="1.1" xmlns="http://www.w3.org/2000/svg" xmlns:xlink="http://www.w3.org/1999/xlink">
    <!-- Generator: Sketch 48.2 (47327) - http://www.bohemiancoding.com/sketch -->
    <title>loading</title>
    <desc>Created with Sketch.</desc>
    <defs></defs>
    <g id="Page-1" stroke="none" stroke-width="1" fill="none" fill-rule="evenodd">
        <g id="loading" fill-rule="nonzero">
            <path d="M64,0 L40.08,21.9 C37.0751311,23.8230618 35.191877,27.0861257 35.03,30.65 C34.37,44.85 64,60.63 64,60.63 L64,0 Z" id="Shape" fill="#FEB94E"></path>
            <path d="M128,64 L106.12,40.1 C104.198137,37.0938768 100.934361,35.2102119 97.37,35.05 C83.17,34.4 67.4,64 67.4,64 L128,64 Z" id="Shape" fill="#04898D"></path>
            <path d="M63.7,69.73 C61.3699046,63.0594047 59.682242,56.1815097 58.66,49.19 C57.5,40.49 59.34,35.02 59.34,35.02 L97.37,35.02 C97.37,35.02 93.07,34.16 82.9,45.12 C79.84,48.42 63.7,69.7 63.7,69.7 L63.7,69.73 Z" id="Shape" fill="#56D2D5"></path>
            <path d="M64,128 L87.9,106.12 C90.9061232,104.198137 92.7897881,100.934361 92.95,97.37 C93.6,83.17 64,67.4 64,67.4 L64,128 Z" id="Shape" fill="#F13835"></path>
            <path d="M58.27,63.7 C64.9405953,61.3699046 71.8184903,59.682242 78.81,58.66 C87.51,57.5 92.98,59.34 92.98,59.34 L92.98,97.37 C92.98,97.37 93.84,93.07 82.88,82.9 C79.58,79.84 58.3,63.7 58.3,63.7 L58.27,63.7 Z" id="Shape" fill="#F58987"></path>
            <path d="M0,64 L21.88,87.9 C23.8018635,90.9061232 27.0656392,92.7897881 30.63,92.95 C44.83,93.6 60.6,64 60.6,64 L0,64 Z" id="Shape" fill="#92609A"></path>
            <path d="M64.3,58.27 C66.6300954,64.9405953 68.317758,71.8184903 69.34,78.81 C70.5,87.51 68.66,92.98 68.66,92.98 L30.63,92.98 C30.63,92.98 34.93,93.84 45.1,82.88 C48.16,79.58 64.3,58.3 64.3,58.3 L64.3,58.27 Z" id="Shape" fill="#D793E2"></path>
            <path d="M69.73,64.34 C63.0564207,66.6738182 56.1751696,68.3648313 49.18,69.39 C40.48,70.53 35.03,68.69 35.03,68.69 L35.03,30.65 C35.03,30.65 34.17,34.95 45.13,45.15 C48.43,48.2 69.73,64.35 69.73,64.35 L69.73,64.34 Z" id="Shape" fill="#FFE2B4"></path>
            <circle id="Oval" fill="#000000" cx="64" cy="64" r="2.03"></circle>
        </g>
    </g>
</svg>