<?xml version="1.0" encoding="UTF-8"?>
<svg width="152px" height="111px" viewBox="0 0 152 111" version="1.1" xmlns="http://www.w3.org/2000/svg" xmlns:xlink="http://www.w3.org/1999/xlink">
    <!-- Generator: Sketch 48.2 (47327) - http://www.bohemiancoding.com/sketch -->
    <title>success</title>
    <desc>Created with Sketch.</desc>
    <defs>
        <rect id="path-1" x="4" y="61" width="144" height="38" rx="8"></rect>
    </defs>
    <g id="Page-1" stroke="none" stroke-width="1" fill="none" fill-rule="evenodd">
        <g id="success">
            <g id="Group">
                <path d="M2.23968769,65.0823241 C2.02668769,65.4113241 1.93368769,65.6203241 2.05168769,65.7803241 C2.17868769,65.9563241 2.86668769,66.7893241 2.86768769,66.7883241 C2.86668769,66.7883241 3.69868769,67.4773241 3.87468769,67.6033241 C4.03468769,67.7213241 4.24368769,67.6283241 4.57268769,67.4153241 C4.65968769,67.0073241 4.70368769,66.7823241 4.57468769,66.6663241 C4.43568769,66.5393241 3.69568769,65.9603241 3.69468769,65.9603241 C3.69468769,65.9593241 3.11668769,65.2203241 2.98968769,65.0813241 C2.87368769,64.9523241 2.64768769,64.9953241 2.23968769,65.0823241" id="Fill-54" fill="#202020"></path>
                <path d="M0,69.4462711 C0.289,69.7512711 0.464,69.9112711 0.667,69.8602711 C0.889,69.8082711 1.97,69.4752711 1.976,69.4822711 C1.976,69.4822711 3.095,69.2072711 3.315,69.1402711 C3.519,69.0792711 3.585,68.8532711 3.667,68.4462711 C3.403,68.1282711 3.236,67.9622711 3.026,68.0072711 C2.799,68.0532711 1.675,68.3512711 1.675,68.3512711 C1.677,68.3422711 0.54,68.6702711 0.316,68.7442711 C0.111,68.8142711 0.053,69.0422711 0,69.4462711" id="Fill-55" fill="#202020"></path>
                <path d="M33.0312649,104.677027 C30.9992649,102.728027 24.4872649,101.714027 25.0322649,106.009027 C25.5362649,109.974027 31.3122649,107.934027 32.6982649,106.010027 L33.0312649,104.677027" id="Fill-56" fill="#E62757"></path>
                <path d="M52.0838595,104.955053 C50.0498595,103.045053 44.2738595,103.976053 45.0758595,107.963053 C45.8578595,111.852053 52.3848595,110.695053 52.4168595,106.955053 L52.0838595,104.955053" id="Fill-57" fill="#E62757"></path>
                <path d="M30,55.333 C29.667,67.333 25.334,79.666 21,91 C24.334,88 36.667,88 41,88 C46.333,88.333 56.001,89.333 61.667,89.333 C51.667,83.333 49.333,63.333 51.667,54 C46,55.333 40,56 34.333,55 L30,55.333" id="Fill-58" fill="#802A17"></path>
                <path d="M30.4782846,55.4354185 C34.2982846,54.6814185 38.1042846,55.8064185 41.9202846,55.4214185 C43.8292846,55.4054185 45.7152846,55.0154185 47.6062846,54.7994185 L50.4082846,54.2124185 C50.9332846,54.2714185 51.2122846,53.6664185 51.9382846,54.2704185 L51.6662846,55.6664185 C50.5902846,63.1814185 51.5062846,71.0014185 54.0482846,78.1134185 C55.3362846,81.6524185 57.1762846,85.0694185 59.9302846,87.6154185 C60.3172846,88.4854185 62.0662846,88.2204185 61.5022846,89.8184185 L58.6202846,89.7284185 L52.8802846,89.3584185 C45.2432846,88.6444185 37.6282846,87.9024185 30.0122846,88.8064185 C28.1192846,89.0054185 26.2202846,89.2674185 24.4042846,89.7924185 C23.4942846,90.0644185 22.5862846,90.3384185 21.8302846,90.8894185 L21.2312846,91.2444185 C20.7132846,90.7214185 21.2342846,90.7144185 21.1852846,90.4244185 L21.6972846,89.0844185 C23.0792846,85.5164185 24.3592846,81.9104185 25.5652846,78.2804185 C27.9112846,71.0114185 29.7052846,63.5054185 30.0712846,55.8474185 C29.7772846,63.5074185 28.0492846,71.0444185 25.7672846,78.3454185 C24.5932846,81.9904185 23.3452846,85.6134185 21.9952846,89.1964185 L21.4952846,90.5424185 C21.3052846,90.6674185 21.5692846,91.2144185 21.0052846,90.9914185 L21.6332846,90.6054185 C22.4442846,90.0094185 23.3702846,89.7234185 24.2962846,89.4364185 C26.1492846,88.8824185 28.0602846,88.6024185 29.9662846,88.3834185 C37.6172846,87.4024185 45.3252846,88.0814185 52.9272846,88.7224185 L58.6492846,89.0374185 L61.5052846,89.1014185 C61.3022846,90.1634185 60.0232846,88.4684185 59.4352846,88.1714185 C56.5202846,85.5244185 54.6022846,82.0134185 53.2492846,78.4044185 C50.7882846,71.0804185 50.0192846,63.1984185 51.2472846,55.5914185 L51.5512846,54.1754185 C51.7782846,54.5284185 50.8012846,54.4274185 50.4862846,54.5754185 L47.6582846,55.1134185 C45.7492846,55.2974185 43.8502846,55.6534185 41.9292846,55.6344185 C38.0702846,55.9464185 34.3092846,54.7514185 30.4782846,55.4354185" id="Fill-59" fill="#000000"></path>
                <path d="M31.9604691,56.3528579 C29.4884691,57.0948579 29.2234691,59.7808579 31.9174691,60.4118579 C31.4534691,62.7118579 31.5254691,63.0388579 33.5944691,63.4778579 C33.1184691,66.0748579 33.3074691,65.4568579 34.8934691,66.0528579 C35.0764691,67.5168579 35.6794691,68.5798579 35.9194691,69.4118579 C35.6354691,70.6658579 35.8344691,71.1928579 36.0274691,72.2928579 C36.9564691,71.9768579 37.1044691,71.7948579 37.8784691,71.1438579 C40.0664691,71.6158579 43.4494691,71.0758579 43.6944691,68.0518579 C45.6914691,67.9018579 45.9994691,67.3068579 46.1024691,65.3448579 C49.0074691,62.5978579 51.8024691,57.6338579 47.9594691,56.2808579 C45.2354691,55.3218579 38.3204691,57.1358579 34.9604691,57.0198579 L31.9604691,56.3528579" id="Fill-60" fill="#F81453"></path>
                <path d="M63.3314001,38.2571865 C65.4794001,34.6761865 66.9114001,39.6891865 65.9564001,41.5981865 C64.0474001,42.3141865 62.6154001,41.5981865 63.0924001,39.4501865 L63.3314001,38.2571865" id="Fill-61" fill="#FFC28A"></path>
                <path d="M63.2863043,38.1999919 C62.9363043,39.4459919 62.6673043,41.5989919 64.3963043,41.7229919 C68.0113043,42.6719919 65.5753043,33.9159919 63.2863043,38.1999919 C65.5383043,33.8879919 68.1463043,42.6489919 64.3883043,41.7899919 C62.5963043,41.6199919 62.9203043,39.4229919 63.2863043,38.1999919" id="Fill-62" fill="#000000"></path>
                <path d="M19.5311326,39.9090084 C17.1441326,32.5100084 14.9951326,49.4570084 20.2471326,43.0120084 C20.0081326,42.0580084 19.7701326,40.8640084 19.2921326,40.1480084 L19.5311326,39.9090084" id="Fill-63" fill="#FFC28A"></path>
                <path d="M19.5462677,39.912089 C19.7442677,41.223089 21.1722677,43.455089 18.9702677,44.348089 C16.5722677,45.061089 16.9822677,41.691089 17.1042677,40.435089 C17.2752677,39.608089 17.3642677,38.645089 18.0532677,38.046089 C19.0682677,37.728089 19.2502677,39.137089 19.5742677,39.777089 C19.2522677,39.134089 18.9662677,37.767089 18.0902677,38.102089 C17.4632677,38.669089 17.3792677,39.640089 17.2372677,40.453089 C17.0852677,41.765089 17.0242677,44.903089 18.8492677,44.107089 C20.9672677,43.374089 19.6582677,41.382089 19.5462677,39.912089" id="Fill-64" fill="#000000"></path>
                <path d="M64.192,40.731 C64.192,29.833 54.075,21 41.597,21 C29.116,21 19,29.833 19,40.731 C19,51.629 29.116,60.462 41.597,60.462 C54.075,60.462 64.192,51.629 64.192,40.731 Z" id="Fill-65" fill="#FFCB97"></path>
                <path d="M64.192,40.731 C64.192,29.833 54.075,21 41.597,21 C29.116,21 19,29.833 19,40.731 C19,51.629 29.116,60.462 41.597,60.462 C54.075,60.462 64.192,51.629 64.192,40.731 Z" id="Stroke-66" stroke="#000000" stroke-width="0.5"></path>
                <path d="M55.3565346,56.708 C61.0125346,53.122 64.6895346,47.302 64.6895346,40.731 C64.6895346,29.833 54.5725346,21 42.0945346,21 C35.8555346,21 58.3245346,30.15 58.3245346,40.015 C58.3225346,49.881 51.6305346,59.07 55.3565346,56.708" id="Fill-67" fill="#FFC088"></path>
                <path d="M38.4764717,20.7304332 C31.1334717,11.1104332 8.37747168,16.6314332 3.91347168,26.4354332 C0.906471681,19.6814332 5.82147168,16.3574332 11.4084717,14.0474332 C8.99647168,13.1474332 9.60347168,11.1084332 11.6544717,10.2334332 C10.2554717,9.36543324 8.83247168,8.75443324 7.24447168,8.27743324 C7.08247168,7.81943324 7.41647168,7.72643324 7.41747168,7.36443324 C2.91747168,3.83343324 15.4144717,0.565433243 17.5324717,0.256433243 C22.2704717,-0.435566757 27.6684717,0.270433243 32.0324717,2.40543324 C37.6994717,5.17843324 49.4414717,13.8884332 41.0424717,20.1934332 C40.7554717,20.4084332 40.3644717,20.6294332 40.1474717,20.7304332 L38.4764717,20.7304332" id="Fill-68" fill="#FFB600"></path>
                <path d="M41.3942189,16.5818697 C44.7892189,9.2188697 31.6962189,1.7238697 26.1172189,1.0688697 C21.7892189,0.558869699 2.85121891,2.8888697 11.0232189,7.8098697 C16.1302189,10.8848697 22.1752189,7.0688697 28.2662189,7.7518697 C33.3282189,8.3188697 38.7982189,11.3968697 40.9162189,16.1048697 L41.3942189,16.5818697" id="Fill-69" fill="#FF9700"></path>
                <path d="M39.9268194,21.3620883 C42.4748194,27.7280883 30.2008194,35.5250883 24.8958194,36.6430883 C19.7958194,37.7170883 18.7888194,36.6930883 21.3698194,31.9220883 C22.9938194,28.9180883 25.4698194,25.7940883 28.2428194,23.6890883 C30.5068194,21.9700883 37.4718194,18.3230883 39.4508194,20.8840883 L39.9268194,21.3620883" id="Fill-70" fill="#FFB600"></path>
                <path d="M41.9061806,21.7170674 C36.9671806,24.1240674 53.6871806,33.8640674 56.7051806,34.1280674 C68.2091806,35.1360674 57.8391806,24.7190674 52.8841806,22.7310674 C50.2141806,21.6590674 46.9361806,20.9690674 44.0551806,21.0010674 L41.9061806,21.7170674" id="Fill-71" fill="#FFB600"></path>
                <path d="M36.387,37.432 C36.387,36.642 35.851,36 35.193,36 C34.533,36 34,36.642 34,37.432 C34,38.223 34.533,38.864 35.193,38.864 C35.851,38.864 36.387,38.223 36.387,37.432" id="Fill-72" fill="#000000"></path>
                <path d="M50.387,37.432 C50.387,36.642 49.852,36 49.194,36 C48.534,36 48,36.642 48,37.432 C48,38.223 48.534,38.864 49.194,38.864 C49.852,38.864 50.387,38.223 50.387,37.432" id="Fill-73" fill="#000000"></path>
                <path d="M20,38.469 C23.178,39.079 26.426,38.239 29.178,36.705 C34.656,33.932 39.889,28.588 39.81,22 C40.075,28.603 34.963,34.189 29.421,37.187 C26.517,38.604 23.135,39.261 20,38.469" id="Fill-74" fill="#000000"></path>
                <path d="M21,34.4570046 C23.314,34.277 25.656,33.933 27.638,32.722 C31.888,30.859 34.882,26.955 37.23,23 C35.034,27.038 32.196,31.099 27.875,33.209 C25.736,34.296 23.304,34.458 21,34.4570046" id="Fill-75" fill="#000000"></path>
                <path d="M24,30.206 C25.047,29.64 26.187,29.275 27.122,28.559 C29.329,27.678 30.951,25.894 32.353,24 C31.116,25.979 29.571,27.96 27.38,29.036 C26.317,29.613 25.107,29.809 24,30.206" id="Fill-76" fill="#000000"></path>
                <path d="M61.482,33.98 C58.709,34.914 55.652,34.706 52.831,33.957 C47.414,32.163 41.809,28.664 40,23 C41.977,28.585 47.634,31.845 52.984,33.438 C55.692,34.338 58.656,34.737 61.482,33.98" id="Fill-77" fill="#000000"></path>
                <path d="M58.798,30.399 C57.037,31.267 54.872,31.472 52.949,30.75 C49.182,29.028 47.026,25.493 44,23 C47.125,25.358 49.523,28.81 53.154,30.249 C54.877,31.083 56.951,31.102 58.798,30.399" id="Fill-78" fill="#000000"></path>
                <path d="M57.115,27.297 C56.063,27.463 54.924,27.551 53.848,27.225 C51.739,26.462 50.118,24.815 49,23 C50.267,24.719 51.992,26.172 54.019,26.711 C54.965,27.184 56.035,27.283 57.115,27.297" id="Fill-79" fill="#000000"></path>
                <path d="M39.0371888,42.717 C38.9571888,43.261 38.9871888,43.689 39.3181888,44.222 C39.5711888,45.15 42.9871888,46.119 43.0521888,45.777 C43.1831888,46.071 46.2911888,44.447 46.4081888,43.533 C46.6451888,42.953 46.6041888,42.524 46.4371888,42 C45.9121888,42.347 45.6311888,42.509 45.4451888,42.968 C45.3081888,43.66 43.0181888,44.869 42.9251888,44.667 C42.8671888,44.894 40.4151888,44.191 40.1781888,43.507 C39.9171888,43.085 39.6101888,42.97 39.0371888,42.717" id="Fill-80" fill="#202020"></path>
                <path d="M41.062,20.0430912 C42.019,16.3590912 40.374,12.4210912 37.223,10.4820912 C31.273,6.35409116 23.006,4.99809116 16,7.39309116 C22.972,4.81809116 31.283,5.88509116 37.59,9.99609116 C40.779,12.1970912 42.239,16.4490912 41.062,20.0430912" id="Fill-81" fill="#000000"></path>
                <path d="M40.154,19.171435 C39.988,15.958435 37.44,13.654435 34.755,12.359435 C29.464,9.60243504 22.864,8.14943504 17,10.102435 C22.827,7.95643504 29.502,9.16443504 35.049,11.826435 C37.735,13.330435 40.217,15.950435 40.154,19.171435" id="Fill-82" fill="#000000"></path>
                <path d="M36.881,17.0888527 C34.84,14.0538527 31.211,12.6168527 27.701,12.6108527 C20.697,12.3078527 13.299,14.6908527 8,19.4758527 C13.185,14.5368527 20.516,11.9008527 27.74,12.0028527 C31.358,12.2058527 35.033,13.9428527 36.881,17.0888527" id="Fill-83" fill="#000000"></path>
                <path d="M37.45,7.47003489 C34.923,5.43703489 32.025,3.89703489 28.842,3.33803489 C22.671,1.64403489 15.807,2.24203489 10,5.08303489 C15.72,2.06003489 22.627,1.21503489 28.99,2.74803489 C32.199,3.51903489 35.071,5.29103489 37.45,7.47003489" id="Fill-84" fill="#000000"></path>
                <path d="M54,44.058 C54,41.816 55.816,40 58.057,40 C60.297,40 62.115,41.816 62.115,44.058 C62.115,46.299 60.297,48.115 58.057,48.115 C55.816,48.115 54,46.299 54,44.058" id="Fill-85" fill="#EE906C"></path>
                <path d="M29.638,43.296 C29.638,40.923 27.928,39 25.819,39 C23.71,39 22,40.923 22,43.296 C22,45.669 23.71,47.593 25.819,47.593 C27.928,47.593 29.638,45.669 29.638,43.296" id="Fill-86" fill="#EE906C"></path>
                <path d="M25,44 C25.824,45.554 26.177,46.881 27.794,48.35 C28.588,49.19 31.225,51.687 34.315,52.837 C37.298,54.188 40.346,54.335 40.323,54.292 C40.325,54.322 43.303,54.516 46.497,53.73 C49.653,52.782 52.636,50.913 53.628,50.308 C55.422,49.13 56.24,48.173 57.462,46.864 C55.799,47.613 54.78,48.236 53.022,49.369 C52.043,49.957 49.153,51.755 46.2,52.646 C43.192,53.38 40.4,53.207 40.398,53.176 C40.416,53.219 37.562,53.077 34.755,51.803 C31.848,50.726 29.351,48.357 28.588,47.565 C27.036,46.188 26.425,45.17 25,44" id="Fill-87" fill="#202020"></path>
                <path d="M53,61 C53.738,61.941 54.28,62.698 55.557,63.437 C56.881,64.73 64.798,65.739 64.804,65.449 C64.826,65.619 72.634,64.877 74.117,64.341 C75.518,64.027 76.263,63.629 77.333,63 C76.083,62.903 75.26,62.904 73.876,63.196 C72.389,63.706 64.81,64.442 64.806,64.278 C64.768,64.551 57.279,63.57 56.1,62.4 C54.917,61.73 54.234,61.381 53,61" id="Fill-88" fill="#202020"></path>
                <path d="M78.2261207,61.2575614 C78.6771207,61.2475614 78.9191207,61.2515614 79.0501207,61.0685614 C79.1201207,60.8275614 80.0411207,59.9485614 80.0351207,59.9435614 C80.0391207,59.9485614 81.0621207,59.1655614 81.3171207,59.0685614 C81.5231207,58.9415614 81.5411207,58.6975614 81.5591207,58.2575614 C81.2061207,58.0285614 80.9721207,57.9295614 80.7331207,58.0545614 C80.4481207,58.1405614 79.2751207,59.0565614 79.2751207,59.0545614 C79.2781207,59.0555614 78.1721207,60.0875614 78.0761207,60.4205614 C77.9261207,60.6635614 78.0091207,60.9105614 78.2261207,61.2575614" id="Fill-89" fill="#202020"></path>
                <path d="M79,62.1116156 C79.159,62.4656156 79.285,62.6546156 79.49,62.6386156 C79.711,62.6226156 80.818,62.4766156 80.815,62.4686156 C80.815,62.4686156 81.855,62.1936156 82.06,62.1276156 C82.248,62.0656156 82.298,61.8416156 82.334,61.4456156 C82.062,61.1326156 81.902,60.9666156 81.723,61.0056156 C81.527,61.0496156 80.567,61.3246156 80.567,61.3256156 C80.565,61.3316156 79.611,61.4326156 79.422,61.4706156 C79.247,61.5036156 79.158,61.7186156 79,62.1116156" id="Fill-90" fill="#202020"></path>
                <path d="M79.0058628,64.1582618 C78.9858628,64.5982618 79.0058628,64.8592618 79.2458628,65.0372618 C79.5068628,65.2282618 80.8488628,66.1452618 80.8488628,66.1452618 C80.8488628,66.1452618 82.1458628,67.0562618 82.4108628,67.2272618 C82.6568628,67.3872618 82.9118628,67.3172618 83.3398628,67.1582618 C83.3598628,66.7192618 83.3398628,66.4592618 83.0998628,66.2812618 C82.8388628,66.0882618 81.4968628,65.1722618 81.4968628,65.1722618 C81.4968628,65.1722618 80.1998628,64.2612618 79.9348628,64.0902618 C79.6888628,63.9312618 79.4328628,64.0002618 79.0058628,64.1582618" id="Fill-91" fill="#202020"></path>
                <path d="M29,61 C27.849,61.098 27.099,61.205 25.916,61.713 C24.691,62.41 18.1,64.68 18.1,64.677 C18.098,64.672 11.378,66.516 9.968,66.566 C8.704,66.792 8.02,67.114 7,67.667 C8.113,67.855 8.878,67.931 10.168,67.72 C11.607,67.685 18.443,65.791 18.444,65.795 C18.444,65.799 25.153,63.51 26.382,62.786 C27.572,62.255 28.169,61.772 29,61" id="Fill-92" fill="#202020"></path>
                <path d="M5.19343299,69.21095 C4.85543299,69.00695 4.62543299,68.93195 4.44343299,69.07095 C4.19243299,69.15595 3.44343299,70.19895 3.46143299,70.20595 C3.44943299,70.20095 2.93243299,71.38195 3.00743299,71.65495 C2.98643299,71.88795 3.17443299,72.04295 3.52643299,72.21095 C3.92143299,72.04595 4.13743299,71.97695 4.16743299,71.81095 C4.12443299,71.60595 4.48243299,70.78795 4.47843299,70.78395 C4.47543299,70.78395 5.00743299,70.04895 5.19943299,69.96395 C5.32743299,69.84795 5.27243299,69.62795 5.19343299,69.21095" id="Fill-93" fill="#202020"></path>
                <path d="M34.4421029,89 C33.7721029,90.356 33.4241029,91.392 33.3621029,93.186 C33.5021029,95.198 33.3681029,104.613 32.6511029,104.382 C32.6851029,104.263 31.9371029,106.766 29.9541029,107.96 C27.8571029,109.142 26.9071029,105.119 27.2171029,104.725 C27.2401029,103.415 28.4391029,104.029 29.7761029,104.667 C29.3181029,104.073 28.9641029,103.503 28.2481029,103.147 C27.5431029,102.574 26.0011029,103.391 26.0581029,104.566 C25.7791029,105.112 26.3881029,110.422 30.4781029,109.014 C33.1231029,107.378 33.6771029,104.754 33.7481029,104.788 C34.5541029,104.798 34.6921029,95.01 34.5321029,93.214 C34.5781029,91.477 34.5021029,90.532 34.4421029,89" id="Fill-94" fill="#202020"></path>
                <path d="M44.269291,89 C43.326291,90.425 42.777291,91.546 42.443291,93.56 C42.204291,94.645 41.821291,97.966 42.094291,101.042 C42.224291,104.182 43.881291,106.787 43.946291,106.712 C43.989291,106.493 45.503291,109.686 49.324291,109.547 C51.220291,109.184 52.235291,107.19 52.086291,105.63 C51.937291,103.876 50.443291,103.214 49.912291,102.981 C47.325291,102.413 46.265291,104.458 46.269291,106 C47.118291,104.504 48.021291,103.771 49.548291,104.093 C50.741291,103.843 51.985291,107.528 49.101291,108.391 C46.566291,108.583 44.781291,105.819 44.882291,106.009 C44.835291,106.057 43.409291,103.901 43.267291,100.934 C43.009291,98.025 43.375291,94.79 43.597291,93.753 C43.907291,91.797 44.019291,90.713 44.269291,89" id="Fill-95" fill="#202020"></path>
                <path d="M39.4351676,60 C39.0381676,61.157 38.7471676,61.955 38.4411676,63.398 C37.9361676,64.974 37.9471676,72.97 38.0721676,72.966 C38.0411676,72.971 38.7011676,80.909 38.7921676,82.487 C38.8601676,83.949 38.9361676,84.774 39.1011676,86 C39.1851676,84.774 39.2441676,83.935 39.1811676,82.465 C39.0951676,80.869 38.4291676,72.942 38.4611676,72.943 C38.3361676,72.941 38.3341676,65.01 38.8251676,63.465 C39.1221676,62.039 39.2771676,61.229 39.4351676,60" id="Fill-96" fill="#EBDDA9"></path>
                <path d="M42.1554898,62.1633702 C41.8894898,62.1003702 41.9384898,62.0923702 41.7114898,62.0623702 C41.1444898,61.6623702 40.7884898,63.3223702 41.1394898,63.1893702 C40.9734898,63.3683702 42.1404898,63.9343702 42.3794898,63.7253702 C42.5624898,63.7093702 42.6624898,63.6333702 42.8224898,63.4963702 C42.6614898,63.3843702 42.5434898,63.3243702 42.3434898,63.3363702 C42.0614898,63.4573702 41.3794898,63.1243702 41.4684898,62.9793702 C41.3364898,62.9373702 41.3304898,62.3163702 41.7114898,62.4533702 C41.8754898,62.5003702 42.1124898,62.2993702 42.1554898,62.1633702" id="Fill-97" fill="#EBDDA9"></path>
                <path d="M41.6565674,66.0047533 C41.4415674,65.9907533 41.2945674,66.0017533 41.0965674,66.1197533 C40.8295674,66.0647533 39.8665674,67.1447533 40.0155674,67.2927533 C39.9485674,67.5077533 41.1755674,68.2107533 41.4225674,68.0697533 C41.6475674,68.1207533 41.7905674,68.0847533 41.9895674,68.0047533 C41.8265674,67.8387533 41.7235674,67.7437533 41.5155674,67.6917533 C41.1465674,67.7137533 40.3315674,67.2797533 40.4015674,67.2357533 C40.3065674,67.2247533 40.9635674,66.5437533 41.3045674,66.4497533 C41.4855674,66.3347533 41.5545674,66.2127533 41.6565674,66.0047533" id="Fill-98" fill="#EBDDA9"></path>
                <path d="M42.6410201,71.0304816 C42.4080201,70.9884816 42.2440201,70.9794816 42.0020201,71.0714816 C41.5880201,71.0074816 40.7630201,72.4314816 41.0650201,72.4824816 C40.6980201,72.8384816 42.0980201,73.5804816 42.3770201,73.2254816 C42.6260201,73.2224816 42.7670201,73.1554816 42.9750201,73.0304816 C42.7670201,72.9054816 42.6260201,72.8384816 42.3770201,72.8354816 C41.7500201,72.8824816 41.1710201,72.8424816 41.4560201,72.4864816 C41.2310201,72.3874816 41.8070201,71.4474816 42.1670201,71.4244816 C42.3890201,71.3354816 42.4880201,71.2244816 42.6410201,71.0304816" id="Fill-99" fill="#EBDDA9"></path>
                <path d="M42.9057485,76.074404 C42.6627485,76.006404 42.5127485,75.972404 42.2767485,76.027404 C41.8237485,75.821404 40.8277485,77.146404 41.1087485,77.234404 C40.6127485,77.389404 41.9527485,78.713404 42.3307485,78.191404 C42.5697485,78.142404 42.6357485,78.167404 42.9057485,78.074404 C42.7637485,77.937404 42.5557485,77.749404 42.2977485,77.803404 C41.7527485,77.984404 41.2287485,77.529404 41.4917485,77.305404 C41.3357485,77.154404 41.9137485,76.320404 42.3607485,76.408404 C42.6127485,76.343404 42.7407485,76.242404 42.9057485,76.074404" id="Fill-100" fill="#EBDDA9"></path>
                <path d="M42.3967151,81.0097915 C42.1827151,80.9887915 42.0377151,80.9937915 41.8397151,81.1037915 C41.5367151,81.0097915 40.6767151,82.3317915 41.1287151,82.4357915 C41.0877151,82.6367915 42.2697151,83.1037915 42.5067151,83.0947915 C42.7257151,83.1367915 42.8647151,83.0957915 43.0627151,83.0097915 C42.9057151,82.8507915 42.8017151,82.7607915 42.5947151,82.7147915 C42.3417151,82.7107915 41.3117151,82.2767915 41.4517151,82.2157915 C41.1927151,82.2567915 41.7057151,81.5347915 42.0467151,81.4347915 C42.2277151,81.3277915 42.2947151,81.2107915 42.3967151,81.0097915" id="Fill-101" fill="#EBDDA9"></path>
                <path d="M42.0360663,85.0513363 C41.8140663,85.0193363 41.7520663,84.9723363 41.6200663,85.0263363 C41.1190663,84.8003363 40.7960663,86.1053363 41.1480663,86.0283363 C41.3170663,86.5183363 42.2140663,85.9723363 42.3700663,86.0243363 C42.5090663,85.9783363 42.5700663,85.8833363 42.7030663,85.7173363 C42.5680663,85.6343363 42.4480663,85.5953363 42.2660663,85.6483363 C42.1430663,85.7123363 41.0440663,85.8913363 41.4980663,85.8543363 C41.4050663,85.7273363 41.2330663,85.3503363 41.7160663,85.4033363 C41.8960663,85.3383363 42.0010663,85.1963363 42.0360663,85.0513363" id="Fill-102" fill="#EBDDA9"></path>
                <path d="M31.0026682,75.1857682 C30.6336682,75.6837682 30.3136682,76.0177682 30.1296682,76.7727682 C30.0046682,77.1037682 29.7236682,78.6057682 30.7776682,79.4547682 C31.8406682,80.2457682 33.0196682,79.6477682 32.9696682,79.6757682 C33.6866682,80.2277682 35.3796682,76.1357682 34.5426682,75.2577682 C33.6116682,74.7267682 33.3296682,75.1797682 32.6696682,75.1857682 C33.1596682,75.2877682 33.9936682,75.4257682 34.1596682,75.3317682 C34.9056682,76.2407682 33.3966682,79.8437682 32.8136682,79.3187682 C32.8546682,79.2977682 31.8616682,79.7797682 31.0196682,79.1457682 C30.1836682,78.4967682 30.3836682,77.1907682 30.5086682,76.8657682 C30.6696682,76.1737682 30.8506682,75.8057682 31.0026682,75.1857682" id="Fill-103" fill="#EBDDA9"></path>
            </g>
            <g id="Group-2" transform="translate(65.000000, 15.000000)">
                <path d="M32.1602005,88.3092922 C31.2932005,83.4832922 24.1952005,84.2312922 23.1702005,88.6412922 C21.7642005,94.6912922 29.4822005,94.7752922 31.1602005,89.9752922 L32.1602005,88.3092922" id="Fill-2" fill="#0E8D94"></path>
                <path d="M60.785968,86.2576877 C56.898968,84.7616877 53.966968,90.1776877 57.777968,92.2656877 C61.126968,94.0966877 64.722968,89.6186877 61.785968,86.9236877 L60.785968,86.2576877" id="Fill-3" fill="#0E8D94"></path>
                <path d="M31.1713029,62.332 C27.5053029,68 23.8373029,72.332 31.5043029,75 C33.1713029,75.666 37.5043029,77 39.1713029,76.332 C41.8383029,75.332 42.5043029,71 45.1713029,69.332 C46.1713029,74.332 47.5043029,75.666 52.1713029,76.332 C56.1713029,77 59.8383029,77 61.1713029,73.332 C61.8383029,71 60.5043029,63.666 58.5043029,62.332 C55.5043029,59.666 51.1713029,62 47.5043029,62 C43.5043029,62 38.5043029,61.666 34.8383029,61 L31.1713029,62.332" id="Fill-4" fill="#72AD75"></path>
                <path d="M30.6911574,62.8430364 C29.3381574,64.6020364 28.1381574,66.0220364 27.1171574,67.7640364 C26.1641574,69.1910364 24.9421574,72.4370364 27.6561574,74.4310364 C28.9311574,75.4360364 31.6461574,76.5640364 35.1381574,77.3310364 C36.7091574,77.7940364 39.4331574,77.8910364 40.8361574,75.9330364 C42.1441574,74.2810364 42.8921574,72.3730364 44.1481574,71.0520364 C44.0371574,70.7380364 45.8101574,70.5430364 44.1641574,70.1760364 L44.4991574,71.6160364 C44.7671574,72.5660364 45.1051574,73.4860364 45.5901574,74.3380364 C46.6321574,76.1070364 48.5461574,76.7990364 49.9021574,77.1100364 C52.6821574,77.6890364 54.5371574,77.7440364 54.5401574,77.7540364 C54.4891574,77.5620364 56.5191574,78.3310364 59.2791574,76.6530364 C62.3361574,74.6760364 61.5211574,69.8550364 60.5161574,66.2400364 C60.0641574,64.3370364 58.8381574,62.0780364 56.6351574,61.3840364 C54.5251574,60.6580364 52.4841574,61.1330364 50.7811574,61.4160364 C47.3981574,62.2350364 44.6111574,61.8020364 43.1541574,61.8210364 C38.0981574,61.9120364 34.5691574,60.1780364 30.6911574,62.8430364 C34.9711574,60.8590364 37.6331574,63.0900364 43.0991574,62.9900364 C44.4781574,62.9790364 47.5221574,63.4130364 50.9951574,62.5740364 C54.3361574,61.5630364 58.7921574,62.1830364 59.3881574,66.5780364 C60.3761574,70.2310364 60.9571574,74.3450364 58.6041574,75.6950364 C56.5231574,77.0230364 54.5051574,76.4430364 54.5881574,76.5840364 C54.5961574,76.5760364 52.8421574,76.5230364 50.1681574,75.9680364 C48.8831574,75.6550364 47.4151574,75.1170364 46.5921574,73.7230364 C46.1931574,73.0160364 45.8861574,72.1950364 45.6351574,71.3100364 L45.3161574,69.9350364 C43.4041574,68.7900364 44.0371574,70.1920364 43.3071574,70.2290364 C40.3131574,80.4750364 30.0521574,74.6040364 28.3861574,73.5160364 C26.3401574,72.0580364 27.1311574,69.8250364 27.8811574,68.1550364 C28.6791574,66.4090364 29.6531574,64.8020364 30.6911574,62.8430364" id="Fill-5" fill="#202020"></path>
                <path d="M34.9944415,40.0291962 C31.6614415,42.0291962 27.6604415,43.0291962 24.6604415,45.0291962 C20.3284415,47.6961962 21.9944415,48.6961962 24.6604415,53.3631962 C27.6604415,53.0291962 30.6614415,51.0291962 33.3274415,49.0291962 C31.9944415,52.0291962 27.3284415,59.3631962 27.9944415,62.3631962 C29.3274415,66.6971962 35.6614415,66.0291962 39.3274415,66.3631962 C43.9944415,66.6971962 48.6614415,67.0291962 53.6614415,67.0291962 C60.3274415,66.3631962 60.6614415,65.6971962 59.9944415,59.3631962 C59.6614415,55.6971962 60.9944415,44.3631962 66.3274415,52.6971962 C68.3274415,49.0291962 72.9944415,47.3631962 69.6614415,43.3631962 C67.9944415,41.3631962 61.9944415,40.0291962 59.6614415,40.0291962 C52.3274415,39.6961962 45.9944415,42.3631962 38.3274415,40.3631962 L34.9944415,40.0291962" id="Fill-6" fill="#434D53"></path>
                <path d="M34.4986879,39.6189413 C31.3916879,41.1639413 28.5826879,41.8889413 25.7606879,43.2389413 C24.3696879,44.0059413 22.9146879,44.5549413 21.5786879,46.0129413 C20.0746879,48.0299413 21.8756879,50.1769413 22.7646879,51.7379413 C23.3776879,52.1919413 22.6606879,52.8679413 24.5576879,53.4589413 C25.3796879,53.2109413 26.4326879,53.1499413 27.3796879,52.6219413 C28.3926879,52.2139413 29.4306879,51.6609413 30.4716879,50.9679413 C31.0186879,50.6549413 31.5336879,50.2759413 32.0676879,49.8909413 L32.8806879,49.3079413 L33.0876879,49.1599413 C32.7196879,48.8229413 34.0566879,49.8089413 32.2896879,48.3859413 L32.2366879,48.4969413 L32.0176879,48.9449413 C30.8326879,51.3559413 29.3026879,53.9549413 28.0706879,56.8199413 C27.5316879,58.2949413 26.8036879,59.7289413 26.9066879,61.5799413 C27.1896879,63.3839413 28.5326879,64.8919413 30.1356879,65.4119413 C42.6416879,67.4539413 53.7106879,67.1409413 53.8716879,67.1249413 C53.8736879,67.1119413 54.5706879,67.0699413 55.8346879,66.8659413 C56.7626879,66.6279413 59.7756879,66.5089413 60.1916879,63.6179413 C60.5726879,61.2089413 59.7956879,58.7479413 60.1126879,56.0459413 C60.2996879,53.9109413 60.9566879,48.9519413 63.1766879,50.1639413 C68.2096879,57.0949413 74.7976879,41.1729413 66.4846879,40.6339413 C61.2036879,38.5169413 56.4056879,38.9849413 54.2196879,39.1959413 C45.9106879,40.5119413 41.4886879,40.3699413 34.4986879,39.6189413 C41.1686879,41.1039413 46.1886879,41.6669413 54.3226879,40.3609413 C56.5126879,40.1579413 61.0406879,39.7209413 66.0446879,41.7269413 C68.4366879,42.4199413 70.9586879,45.1489413 68.9666879,47.4639413 C68.0966879,48.6009413 66.8976879,49.6839413 65.9606879,51.0249413 C66.1836879,51.3049413 64.4936879,51.8589413 66.2896879,51.9159413 L65.5846879,50.9259413 C65.0806879,50.2869413 64.5736879,49.6319413 63.7776879,49.1519413 C61.7406879,47.7109413 59.9036879,50.3079413 59.7566879,51.5589413 C59.2606879,53.0549413 59.0596879,54.5319413 58.9406879,55.9549413 C58.6306879,58.8279413 59.3836879,61.4759413 59.0396879,63.3949413 C57.7626879,66.6939413 53.2296879,65.5699413 53.7396879,65.9609413 C53.9966879,66.0009413 42.3296879,66.1959413 30.5946879,64.3279413 C27.4576879,63.3249413 27.7006879,60.0129413 29.1546879,57.2819413 C30.3496879,54.5009413 31.8526879,51.9479413 33.0816879,49.4499413 L33.3106879,48.9809413 L33.3666879,48.8649413 C31.5686879,47.4479413 32.8106879,48.5129413 32.3826879,48.2149413 L32.1806879,48.3609413 L31.3856879,48.9299413 C30.8636879,49.3059413 30.3596879,49.6779413 29.8406879,49.9739413 C28.8356879,50.6429413 27.8576879,51.1629413 26.9266879,51.5359413 C26.0316879,52.0409413 25.1286879,52.0579413 24.3906879,52.2979413 C24.8616879,52.8619413 23.8536879,51.3319413 23.7636879,51.1299413 C22.6976879,49.3719413 21.5126879,47.7519413 22.4346879,46.6799413 C23.3846879,45.5389413 24.9166879,44.7709413 26.1586879,43.9999413 C28.7916879,42.5229413 31.5746879,41.4899413 34.4986879,39.6189413" id="Fill-7" fill="#202020"></path>
                <path d="M24.0813864,15.2429069 C22.0853864,14.5919069 23.0783864,11.8069069 25.2243864,12.5499069 C25.0293864,12.0259069 24.1733864,10.4019069 24.6143864,9.77590693 C25.5483864,8.45690693 26.3663864,10.3359069 26.7393864,10.0829069 C27.5703864,9.52190693 27.3853864,4.99690693 29.4113864,7.42990693 C29.8143864,6.89090693 29.5083864,5.35590693 29.9113864,5.06390693 C30.8233864,4.40290693 31.4403864,5.65690693 31.5733864,5.58290693 C32.8213864,4.90290693 33.1473864,2.18590693 34.5733864,3.76290693 C35.6513864,1.15990693 36.1503864,3.12290693 37.5443864,2.70490693 C38.7403864,2.34590693 39.0533864,-0.123093067 40.6193864,1.72090693 C41.4993864,1.03390693 41.8693864,0.181906933 43.0933864,0.101906933 C43.9313864,2.91390693 46.6603864,-2.01309307 46.4443864,1.03890693 C47.9293864,1.56690693 49.3083864,-1.65209307 49.9483864,1.21690693 C50.8933864,0.322906933 51.3623864,0.697906933 52.2923864,0.864906933 C52.6553864,0.928906933 51.8893864,1.89490693 52.6193864,2.04190693 C53.0563864,2.12990693 53.9603864,1.67790693 54.0403864,1.69790693 C54.2713864,1.75190693 54.5773864,0.978906933 55.0853864,1.07290693 C55.5933864,1.16690693 55.7473864,2.00190693 56.0913864,2.06690693 C56.5533864,2.15590693 57.3043864,2.72290693 58.5563864,2.43490693 C58.5403864,2.78790693 58.6293864,3.19790693 58.6103864,3.54690693 C59.3723864,3.44890693 59.6593864,3.82490693 60.4143864,3.22690693 C60.4073864,3.60190693 60.7613864,4.23690693 60.6073864,4.88390693 C60.9033864,4.84190693 62.7853864,4.30890693 62.9233864,4.39790693 C63.5853864,4.82690693 63.1183864,6.10790693 63.0703864,6.08090693 C63.9523864,6.56690693 66.7953864,5.94390693 64.7323864,7.57690693 C65.5243864,8.08090693 65.8523864,8.14090693 66.7433864,7.60190693 C66.8553864,7.64790693 66.9603864,7.70690693 67.0583864,7.77790693 C66.8783864,8.38690693 67.0323864,9.11290693 66.6083864,9.71790693 C68.7353864,9.10390693 69.5223864,10.4939069 67.7653864,11.7089069 C69.1893864,11.6759069 71.2833864,12.8499069 69.2613864,13.8719069 C72.9623864,12.5279069 70.9203864,17.4979069 68.2473864,16.7429069 C66.3253864,16.1999069 64.6393864,12.4009069 62.9603864,11.0339069 C58.2543864,7.20490693 53.6933864,5.38290693 47.5813864,5.57690693 C41.7073864,5.76190693 27.4273864,8.14990693 26.5573864,16.0519069 C26.0513864,16.1529069 25.5253864,16.0979069 25.0813864,15.9099069 L24.0813864,15.2429069" id="Fill-8" fill="#491F02"></path>
                <path d="M69.3469074,21.3164371 C71.5969074,17.5664371 73.0969074,22.8164371 72.0969074,24.8164371 C70.0969074,25.5664371 68.5969074,24.8164371 69.0969074,22.5664371 L69.3469074,21.3164371" id="Fill-9" fill="#D19C78"></path>
                <path d="M69.4050318,21.3019836 C69.0960318,22.6909836 69.0180318,24.7849836 70.5960318,24.7449836 C73.8640318,26.0719836 71.9450318,16.9139836 69.4050318,21.3019836 C71.6250318,16.6849836 74.9860318,25.8749836 70.5320318,25.3079836 C68.4220318,24.9609836 68.9670318,22.4979836 69.4050318,21.3019836" id="Fill-10" fill="#000000"></path>
                <path d="M23.6506416,22.9996506 C21.1506416,15.2496506 18.9006416,32.9996506 24.4006416,26.2496506 C24.1506416,25.2496506 23.9006416,23.9996506 23.4006416,23.2496506 L23.6506416,22.9996506" id="Fill-11" fill="#D19C78"></path>
                <path d="M23.6995721,23.0912251 C24.1765721,24.4102251 25.4735721,26.8132251 23.1935721,27.8202251 C20.4005721,28.4592251 21.0315721,24.8792251 21.1285721,23.5982251 C21.3085721,22.7252251 21.4245721,21.7562251 22.1175721,21.0752251 C23.2225721,20.6482251 23.4475721,22.1492251 23.7575721,22.8082251 C23.4435721,22.1322251 23.0235721,20.7532251 22.2075721,21.1862251 C21.6265721,21.8072251 21.5295721,22.7892251 21.4095721,23.6352251 C21.2405721,25.0252251 21.3535721,28.1432251 22.9425721,27.3112251 C25.0425721,26.6442251 23.9925721,24.7412251 23.6995721,23.0912251" id="Fill-12" fill="#000000"></path>
                <path d="M71.332,23.667 C71.332,12.253 60.737,3 47.666,3 C34.596,3 24,12.253 24,23.667 C24,35.081 34.596,44.333 47.666,44.333 C60.737,44.333 71.332,35.081 71.332,23.667 Z" id="Fill-13" fill="#DCA984"></path>
                <path d="M71.332,23.667 C71.332,12.253 60.737,3 47.666,3 C34.596,3 24,12.253 24,23.667 C24,35.081 34.596,44.333 47.666,44.333 C60.737,44.333 71.332,35.081 71.332,23.667 Z" id="Stroke-14" stroke="#000000" stroke-width="0.5"></path>
                <path d="M60.9763607,39.8750635 C67.0723607,36.4040635 70.8093607,30.2560635 70.8093607,23.3750635 C70.8093607,11.9610635 60.1433607,3.29106347 47.0183607,3.00006347 C46.6753607,2.99206347 51.2063607,3.73806347 54.8933607,6.54106347 C59.7433607,10.2280635 64.1433607,16.7540635 64.1433607,22.6250635 C64.1433607,32.9580635 58.7533607,41.1400635 60.9763607,39.8750635" id="Fill-15" fill="#CF996A"></path>
                <path d="M41.5,20.5 C41.5,19.671 40.941,19 40.25,19 C39.56,19 39,19.671 39,20.5 C39,21.328 39.56,22 40.25,22 C40.941,22 41.5,21.328 41.5,20.5" id="Fill-16" fill="#000000"></path>
                <path d="M55.5,20.5 C55.5,19.671 54.941,19 54.25,19 C53.56,19 53,19.671 53,20.5 C53,21.328 53.56,22 54.25,22 C54.941,22 55.5,21.328 55.5,20.5" id="Fill-17" fill="#000000"></path>
                <path d="M44.038497,26.75 C43.955497,27.321 43.986497,27.768 44.334497,28.325 C44.598497,29.298 48.175497,30.313 48.244497,29.955 C48.380497,30.263 51.636497,28.562 51.759497,27.605 C52.009497,26.997 51.965497,26.548 51.788497,26 C51.240497,26.361 50.944497,26.532 50.749497,27.013 C50.607497,27.737 48.209497,29.003 48.112497,28.792 C48.051497,29.03 45.482497,28.295 45.234497,27.577 C44.960497,27.134 44.640497,27.015 44.038497,26.75" id="Fill-18" fill="#202020"></path>
                <path d="M60,27.25 C60,24.902 61.902,23 64.25,23 C66.598,23 68.5,24.902 68.5,27.25 C68.5,29.596 66.598,31.5 64.25,31.5 C61.902,31.5 60,29.596 60,27.25" id="Fill-19" fill="#EE906C"></path>
                <path d="M34,26.5 C34,24.013 32.209,22 30,22 C27.791,22 26,24.013 26,26.5 C26,28.984 27.791,31 30,31 C32.209,31 34,28.984 34,26.5" id="Fill-20" fill="#EE906C"></path>
                <path d="M30,27 C30.863,28.627 31.233,30.018 32.927,31.556 C33.758,32.436 36.52,35.051 39.757,36.256 C42.882,37.671 46.072,37.825 46.05,37.779 C46.051,37.811 49.171,38.014 52.516,37.19 C55.821,36.197 58.946,34.24 59.985,33.606 C61.863,32.373 62.722,31.371 64,30 C62.259,30.784 61.192,31.436 59.351,32.623 C58.326,33.238 55.298,35.122 52.205,36.054 C49.056,36.825 46.13,36.643 46.128,36.612 C46.148,36.657 43.157,36.507 40.218,35.173 C37.172,34.045 34.557,31.563 33.759,30.734 C32.134,29.292 31.494,28.226 30,27" id="Fill-21" fill="#202020"></path>
                <path d="M26.0354403,11.0431214 C25.9824403,11.3381214 25.9734403,11.5161214 26.1184403,11.6651214 C26.2784403,11.8231214 27.0824403,12.6081214 27.0974403,12.5961214 C27.0974403,12.5961214 27.9884403,13.3191214 28.1714403,13.4571214 C28.3404403,13.5841214 28.5134403,13.5491214 28.7854403,13.4491214 C28.7904403,13.1341214 28.7804403,12.9541214 28.6294403,12.8251214 C28.4654403,12.6841214 27.6174403,12.0151214 27.6174403,12.0151214 C27.6084403,12.0321214 26.8274403,11.2501214 26.6624403,11.1051214 C26.5124403,10.9681214 26.3354403,10.9851214 26.0354403,11.0431214" id="Fill-22" fill="#202020"></path>
                <path d="M28.0012742,8.08551877 C27.9962742,8.40651877 27.9992742,8.58751877 28.1402742,8.71951877 C28.2922742,8.86551877 29.0902742,9.52751877 29.0882742,9.54651877 C29.0882742,9.54651877 29.8552742,10.3545188 30.0142742,10.5115188 C30.1612742,10.6555188 30.3362742,10.6425188 30.6262742,10.5855188 C30.6792742,10.2815188 30.6952742,10.1025188 30.5592742,9.95351877 C30.4132742,9.79051877 29.6512742,9.00651877 29.6512742,9.00651877 C29.6702742,9.00251877 28.7802742,8.23651877 28.6022742,8.09051877 C28.4352742,7.95551877 28.2632742,7.98651877 28.0012742,8.08551877" id="Fill-23" fill="#202020"></path>
                <path d="M31.08209,6.00074502 C30.98709,6.27374502 30.95609,6.44874502 31.09009,6.62074502 C31.23509,6.80674502 31.99509,7.71274502 31.99609,7.71174502 C31.99509,7.71274502 32.90109,8.47174502 33.08709,8.61674502 C33.25809,8.75074502 33.43409,8.72074502 33.70709,8.62574502 C33.71109,8.30674502 33.70409,8.12574502 33.55409,7.99174502 C33.39109,7.84674502 32.54809,7.15974502 32.54709,7.15974502 C32.54809,7.15974502 31.86009,6.31574502 31.71609,6.15374502 C31.58209,6.00374502 31.40109,5.99674502 31.08209,6.00074502" id="Fill-24" fill="#202020"></path>
                <path d="M34.2937115,5 C34.0797115,5.122 33.9687115,5.234 34.0077115,5.402 C34.0427115,5.587 34.3197115,6.489 34.3227115,6.486 C34.3217115,6.486 34.8507115,7.202 34.9647115,7.339 C35.0697115,7.465 35.2287115,7.45 35.4817115,7.375 C35.5817115,7.098 35.6367115,6.946 35.5577115,6.831 C35.4737115,6.705 35.0087115,6.111 35.0077115,6.113 C35.0107115,6.108 34.8347115,5.429 34.7807115,5.299 C34.7367115,5.175 34.5787115,5.121 34.2937115,5" id="Fill-25" fill="#202020"></path>
                <path d="M36.349669,3 C36.114669,3.119 35.989669,3.213 36.000669,3.365 C36.010669,3.53 36.115669,4.354 36.116669,4.353 C36.092669,4.364 36.331669,5.128 36.377669,5.282 C36.425669,5.423 36.579669,5.464 36.849669,5.5 C37.051669,5.306 37.158669,5.191 37.124669,5.055 C37.093669,4.909 36.852669,4.188 36.878669,4.187 C36.878669,4.187 36.803669,3.464 36.779669,3.32 C36.756669,3.187 36.612669,3.118 36.349669,3" id="Fill-26" fill="#202020"></path>
                <path d="M39.3821096,2 C39.1361096,2.141 39.0031096,2.241 39.0001096,2.413 C38.9981096,2.599 39.0241096,3.532 39.0261096,3.532 C39.0251096,3.532 39.1561096,4.484 39.1911096,4.673 C39.2231096,4.846 39.3691096,4.92 39.6321096,5 C39.8541096,4.8 39.9731096,4.682 39.9561096,4.521 C39.9391096,4.347 39.8041096,3.483 39.8041096,3.482 C39.8021096,3.483 39.7911096,2.58 39.7811096,2.399 C39.7711096,2.233 39.6341096,2.14 39.3821096,2" id="Fill-27" fill="#202020"></path>
                <path d="M42.3821138,2 C42.1361138,2.153 42.0031138,2.259 42.0001138,2.445 C41.9981138,2.647 42.0231138,3.653 42.0251138,3.654 C42.0241138,3.653 42.1561138,4.684 42.1911138,4.888 C42.2231138,5.077 42.3691138,5.158 42.6321138,5.25 C42.8541138,5.038 42.9731138,4.913 42.9561138,4.738 C42.9391138,4.548 42.8051138,3.61 42.8041138,3.61 C42.8021138,3.61 42.7911138,2.63 42.7811138,2.434 C42.7711138,2.253 42.6341138,2.152 42.3821138,2" id="Fill-28" fill="#202020"></path>
                <path d="M45.3921111,1 C45.1431111,1.14 45.0081111,1.236 45.0031111,1.404 C44.9961111,1.587 45.0031111,2.5 45.0031111,2.5 C45.0031111,2.5 44.9961111,3.413 45.0031111,3.595 C45.0081111,3.763 45.1431111,3.859 45.3921111,4 C45.6411111,3.859 45.7761111,3.763 45.7821111,3.595 C45.7891111,3.413 45.7821111,2.5 45.7821111,2.5 C45.7821111,2.5 45.7891111,1.587 45.7821111,1.404 C45.7761111,1.236 45.6411111,1.14 45.3921111,1" id="Fill-29" fill="#202020"></path>
                <path d="M48.7932024,2 C48.5302024,2.141 48.3842024,2.227 48.3612024,2.388 C48.3342024,2.563 48.2532024,3.441 48.2502024,3.442 C48.2502024,3.442 48.0392024,4.332 48.0052024,4.51 C47.9742024,4.676 48.0832024,4.8 48.2932024,5 C48.5672024,4.921 48.7202024,4.855 48.7652024,4.687 C48.8142024,4.506 49.0172024,3.587 49.0172024,3.587 C49.0212024,3.589 49.1272024,2.622 49.1402024,2.427 C49.1532024,2.25 49.0282024,2.142 48.7932024,2" id="Fill-30" fill="#202020"></path>
                <path d="M50.8477907,2 C50.5747907,2.079 50.4217907,2.143 50.3757907,2.311 C50.3277907,2.493 50.1247907,3.413 50.1247907,3.413 C50.1207907,3.41 50.0137907,4.378 50.0007907,4.571 C49.9887907,4.75 50.1137907,4.857 50.3477907,5 C50.6117907,4.858 50.7567907,4.772 50.7807907,4.61 C50.8067907,4.435 50.8877907,3.557 50.8907907,3.556 C50.8907907,3.556 51.1017907,2.667 51.1357907,2.489 C51.1677907,2.323 51.0577907,2.199 50.8477907,2" id="Fill-31" fill="#202020"></path>
                <path d="M55.2780871,3.00308925 C55.0130871,2.99008925 54.8520871,3.01308925 54.7720871,3.17008925 C54.6870871,3.34008925 54.2780871,4.21508925 54.2990871,4.21608925 C54.2990871,4.21608925 54.0500871,5.09208925 54.0080871,5.26908925 C53.9690871,5.43208925 54.0730871,5.55908925 54.2780871,5.75308925 C54.5560871,5.68108925 54.7110871,5.62708925 54.7610871,5.47308925 C54.8130871,5.30608925 55.0400871,4.46008925 55.0400871,4.46008925 C55.0260871,4.44808925 55.3940871,3.71008925 55.4510871,3.55408925 C55.5100871,3.41108925 55.4280871,3.26508925 55.2780871,3.00308925" id="Fill-32" fill="#202020"></path>
                <path d="M57.8750898,4 C57.5740898,4.007 57.4050898,4.019 57.3110898,4.153 C57.2070898,4.298 56.7310898,5.044 56.7310898,5.044 C56.7450898,5.042 56.1580898,5.795 56.0530898,5.949 C55.9530898,6.092 56.0040898,6.247 56.1250898,6.5 C56.4190898,6.524 56.5870898,6.524 56.6940898,6.393 C56.8090898,6.25 57.3570898,5.528 57.3540898,5.514 C57.3540898,5.514 57.8910898,4.703 57.9900898,4.536 C58.0820898,4.382 58.0200898,4.231 57.8750898,4" id="Fill-33" fill="#202020"></path>
                <path d="M59.8658444,5 C59.5668444,5.021 59.3978444,5.046 59.3058444,5.197 C59.2018444,5.361 58.7368444,6.208 58.7278444,6.204 C58.7278444,6.204 58.1598444,6.999 58.0528444,7.162 C57.9538444,7.312 58.0048444,7.475 58.1158444,7.75 C58.4028444,7.774 58.5738444,7.766 58.6858444,7.618 C58.8078444,7.457 59.3838444,6.628 59.3838444,6.628 C59.3918444,6.634 59.8958444,5.747 59.9918444,5.567 C60.0798444,5.401 60.0138444,5.244 59.8658444,5" id="Fill-34" fill="#202020"></path>
                <path d="M61.883611,6.01004814 C61.594611,5.98804814 61.427611,5.99204814 61.325611,6.12804814 C61.213611,6.27404814 60.691611,7.03304814 60.691611,7.03304814 C60.691611,7.03304814 60.148611,7.79704814 60.046611,7.95304814 C59.953611,8.09904814 60.008611,8.25404814 60.133611,8.51004814 C60.422611,8.53004814 60.589611,8.52704814 60.692611,8.39204814 C60.803611,8.24504814 61.326611,7.48604814 61.326611,7.48604814 C61.326611,7.48604814 61.869611,6.72304814 61.970611,6.56504814 C62.064611,6.42104814 62.008611,6.26504814 61.883611,6.01004814" id="Fill-35" fill="#202020"></path>
                <path d="M64.1180749,8.06339873 C63.8440749,7.98839873 63.6800749,7.96339873 63.5560749,8.08139873 C63.4220749,8.21039873 62.7800749,8.87939873 62.7800749,8.87939873 C62.7740749,8.86839873 62.1740749,9.61539873 62.0590749,9.76639873 C61.9530749,9.90739873 62.0000749,10.0643987 62.1180749,10.3133987 C62.4140749,10.3413987 62.5810749,10.3493987 62.6880749,10.2263987 C62.8070749,10.0953987 63.3440749,9.40339873 63.3550749,9.40739873 C63.3550749,9.40739873 63.9920749,8.76139873 64.1140749,8.62639873 C64.2270749,8.50239873 64.1960749,8.34039873 64.1180749,8.06339873" id="Fill-36" fill="#202020"></path>
                <path d="M66.0263224,9.02639478 C65.7343224,8.99039478 65.5703224,8.97539478 65.4703224,9.08739478 C65.3593224,9.20839478 64.8443224,9.84339478 64.8453224,9.84339478 C64.8443224,9.84339478 64.2093224,10.3583948 64.0883224,10.4683948 C63.9753224,10.5703948 63.9903224,10.7343948 64.0263224,11.0263948 C64.2673224,11.1483948 64.4213224,11.1963948 64.5543224,11.0933948 C64.6993224,10.9843948 65.3963224,10.3963948 65.3953224,10.3953948 C65.3963224,10.3963948 65.9843224,9.69939478 66.0953224,9.55439478 C66.1963224,9.42039478 66.1483224,9.26739478 66.0263224,9.02639478" id="Fill-37" fill="#202020"></path>
                <path d="M67.813704,10.1362962 C67.560704,10.0042962 67.392704,9.94929615 67.213704,10.0572962 C67.019704,10.1762962 66.054704,10.7862962 66.067704,10.8032962 C66.066704,10.8022962 65.258704,11.6162962 65.104704,11.7872962 C64.962704,11.9422962 64.981704,12.1152962 65.063704,12.3862962 C65.380704,12.4162962 65.558704,12.4262962 65.696704,12.2952962 C65.846704,12.1532962 66.558704,11.4102962 66.558704,11.4092962 C66.546704,11.3932962 67.434704,10.8552962 67.601704,10.7322962 C67.760704,10.6252962 67.784704,10.4482962 67.813704,10.1362962" id="Fill-38" fill="#202020"></path>
                <path d="M69.5082815,13.1592866 C69.2532815,13.0212866 69.1022815,12.9552866 68.9602815,13.0332866 C68.8082815,13.1162866 68.0652815,13.5702866 68.0652815,13.5702866 C68.0652815,13.5702866 67.2862815,14.0292866 67.1352815,14.1272866 C66.9952815,14.2182866 66.9882815,14.3802866 67.0082815,14.6592866 C67.2632815,14.7952866 67.4142815,14.8622866 67.5562815,14.7852866 C67.7082815,14.7012866 68.4522815,14.2482866 68.4522815,14.2482866 C68.4522815,14.2482866 69.2302815,13.7882866 69.3812815,13.6892866 C69.5212815,13.5982866 69.5292815,13.4362866 69.5082815,13.1592866" id="Fill-39" fill="#202020"></path>
                <path d="M70.75,15.1525186 C70.51,15.0115186 70.354,14.9505186 70.191,15.0465186 C70.013,15.1505186 69.148,15.7095186 69.148,15.7095186 C69.148,15.7095186 68.339,16.2155186 68.182,16.3255186 C68.036,16.4245186 68.018,16.5975186 68,16.9025186 C68.241,17.0425186 68.397,17.1035186 68.56,17.0065186 C68.737,16.9035186 69.603,16.3445186 69.602,16.3445186 C69.603,16.3445186 70.411,15.8375186 70.569,15.7295186 C70.714,15.6285186 70.733,15.4565186 70.75,15.1525186" id="Fill-40" fill="#202020"></path>
                <path d="M24.1842588,14 C24.0172588,14.21 23.9492588,14.377 24.0412588,14.56 C24.0472588,14.828 24.9202588,15.56 24.9272588,15.551 C24.9092588,15.567 26.0012588,16.018 26.2552588,15.843 C26.4702588,15.816 26.5762588,15.663 26.6452588,15.412 C26.4212588,15.189 26.3292588,15.057 26.1942588,15.064 C26.0402588,15.184 25.3362588,14.882 25.3362588,14.887 C25.3422588,14.878 24.7362588,14.383 24.7262588,14.185 C24.6512588,14.06 24.4892588,14.051 24.1842588,14" id="Fill-41" fill="#202020"></path>
                <path d="M20.668,50 C19.845,50.035 19.323,50.096 18.576,50.506 C17.81,51.014 13.629,53.067 13.631,53.072 C13.633,53.077 9.408,55.073 8.582,55.541 C7.813,55.941 7.465,56.344 7,57 C7.82,57.003 8.345,56.963 9.114,56.583 C9.922,56.146 14.143,54.13 14.141,54.126 C14.138,54.12 18.362,52.069 19.151,51.526 C19.905,51.091 20.236,50.672 20.668,50" id="Fill-42" fill="#202020"></path>
                <path d="M0,58.1986286 C0.292,58.5156286 0.471,58.6826286 0.709,58.6386286 C0.967,58.5976286 2.244,58.2806286 2.243,58.3076286 C2.244,58.3086286 3.518,58.2046286 3.77,58.1696286 C4.004,58.1396286 4.129,57.9246286 4.334,57.5326286 C4.129,57.1766286 3.975,56.9876286 3.718,57.0006286 C3.44,57.0146286 2.049,57.1526286 2.049,57.1536286 C2.04,57.1276286 0.713,57.4346286 0.447,57.4986286 C0.205,57.5626286 0.112,57.7906286 0,58.1986286" id="Fill-43" fill="#202020"></path>
                <path d="M1.13939126,62.189918 C1.58439126,62.261918 1.83439126,62.292918 2.00639126,62.126918 C2.19439126,61.946918 3.08039126,60.999918 3.07939126,60.998918 C3.03939126,60.961918 4.13339126,60.203918 4.33039126,60.028918 C4.52039126,59.874918 4.51239126,59.626918 4.47339126,59.189918 C4.09639126,59.005918 3.86039126,58.929918 3.64639126,59.078918 C3.42039126,59.249918 2.27239126,60.076918 2.30539126,60.121918 C2.30439126,60.120918 1.29939126,61.156918 1.11039126,61.373918 C0.934391261,61.572918 0.987391261,61.811918 1.13939126,62.189918" id="Fill-44" fill="#202020"></path>
                <path d="M6.12106059,59 C5.72706059,59.204 5.51206059,59.329 5.48006059,59.562 C5.44406059,59.815 5.33506059,61.087 5.33106059,61.088 C5.33106059,61.088 5.05006059,62.365 5.00606059,62.623 C4.96506059,62.861 5.13406059,63.04 5.45306059,63.332 C5.85906059,63.221 6.08606059,63.127 6.14706059,62.883 C6.21306059,62.618 6.48606059,61.281 6.48606059,61.281 C6.49006059,61.283 6.63306059,59.893 6.64806059,59.615 C6.66306059,59.359 6.47506059,59.205 6.12106059,59" id="Fill-45" fill="#202020"></path>
                <path d="M70,49 C70.35,49.859 70.616,50.4 71.326,51.102 C72.127,51.822 75.908,55.742 75.912,55.739 C75.916,55.735 79.692,59.679 80.527,60.404 C81.258,61.101 81.811,61.355 82.667,61.666 C82.319,60.806 82.052,60.266 81.341,59.563 C80.539,58.844 76.758,54.923 76.755,54.927 C76.752,54.93 72.975,50.986 72.141,50.262 C71.408,49.564 70.857,49.31 70,49" id="Fill-46" fill="#202020"></path>
                <path d="M81.5894444,63 C81.2154444,63.14 81.0134444,63.236 81.0044444,63.404 C80.9944444,63.587 81.0044444,64.5 81.0044444,64.5 C81.0044444,64.5 80.9944444,65.413 81.0044444,65.595 C81.0134444,65.763 81.2154444,65.859 81.5894444,66 C81.9624444,65.859 82.1654444,65.763 82.1744444,65.595 C82.1844444,65.413 82.1744444,64.5 82.1744444,64.5 C82.1744444,64.5 82.1844444,63.587 82.1744444,63.404 C82.1654444,63.236 81.9624444,63.14 81.5894444,63" id="Fill-47" fill="#202020"></path>
                <path d="M84.5110758,63 C84.1630758,63.119 83.9780758,63.235 84.0020758,63.404 C84.0380758,63.584 84.2090758,64.513 84.2780758,64.48 C84.2720758,64.48 84.7560758,65.266 84.8700758,65.411 C84.9700758,65.546 85.1800758,65.495 85.5110758,65.334 C85.7110758,64.969 85.8320758,64.78 85.7770758,64.672 C85.7210758,64.551 85.3560758,64.015 85.3510758,64.015 C85.2890758,64.036 85.2250758,63.39 85.1660758,63.275 C85.1290758,63.162 84.9110758,63.117 84.5110758,63" id="Fill-48" fill="#202020"></path>
                <path d="M84.039853,60.4205285 C83.980853,60.7975285 83.974853,61.0115285 84.108853,61.0755285 C84.253853,61.1435285 85.003853,61.4255285 85.003853,61.4255285 C84.993853,61.4385285 85.834853,61.5935285 86.001853,61.6115285 C86.156853,61.6285285 86.259853,61.4395285 86.372853,61.0865285 C86.261853,60.6925285 86.210853,60.4765285 86.096853,60.4455285 C85.973853,60.4045285 85.347853,60.3175285 85.345853,60.3055285 C85.345853,60.3045285 84.714853,60.0455285 84.583853,60.0055285 C84.462853,59.9675285 84.312853,60.1275285 84.039853,60.4205285" id="Fill-49" fill="#202020"></path>
                <path d="M32.9838371,77 C32.7088371,78.513 32.5388371,79.491 32.4408371,81.244 C32.9648371,83.329 30.2098371,92.419 29.0718371,91.293 C29.2928371,91.071 26.4878371,93.086 25.4008371,91.34 C24.4948371,89.246 26.3468371,86.381 26.9198371,86.404 C27.9088371,86.131 28.7098371,87.248 29.6508371,88.334 C29.2968371,87.157 29.2168371,84.983 26.4848371,85.317 C25.2198371,85.785 23.1848371,88.748 24.3448371,91.86 C27.0018371,94.946 29.8418371,91.81 29.6168371,92.328 C29.6988371,92.57 32.0488371,90.589 32.6068371,87.864 C33.3818371,85.221 33.5878371,82.276 33.6098371,81.302 C33.6928371,79.5 33.4538371,78.452 32.9838371,77" id="Fill-50" fill="#202020"></path>
                <path d="M54.8229754,78 C54.2449754,79.403 53.9579754,80.46 54.0049754,82.263 C54.0179754,83.237 54.1689754,86.202 55.1239754,88.82 C55.8039754,91.723 59.0169754,92.851 58.9699754,92.591 C58.5199754,92.212 62.4899754,94.03 63.5769754,90.054 C63.4159754,86.829 60.3019754,84.691 58.8329754,85.201 C56.5089754,86.322 57.1379754,87.989 57.1559754,89.332 C57.7269754,88.006 58.0459754,86.732 59.0859754,86.343 C59.5439754,85.839 62.3749754,87.714 62.3989754,90.025 C62.1549754,92.124 58.8109754,91.305 59.0969754,91.428 C59.0999754,91.535 57.0049754,91.014 56.2239754,88.399 C55.3579754,86.034 55.1899754,83.153 55.1749754,82.227 C55.1139754,80.488 54.9829754,79.527 54.8229754,78" id="Fill-51" fill="#202020"></path>
            </g>
            <g id="Rectangle">
                <use fill="#EDEAFA" fill-rule="evenodd" xlink:href="#path-1"></use>
                <rect stroke="#08898D" stroke-width="1" x="4.5" y="61.5" width="143" height="37" rx="8"></rect>
            </g>
            <text id="Success!" font-family="MountainsofChristmas-Bold, Mountains of Christmas" font-size="30" font-weight="bold" fill="#702A76">
                <tspan x="32.1279297" y="89">Success!</tspan>
            </text>
        </g>
    </g>
</svg>