<?xml version="1.0" encoding="UTF-8"?>
<svg width="395px" height="358px" viewBox="0 0 395 358" version="1.1" xmlns="http://www.w3.org/2000/svg" xmlns:xlink="http://www.w3.org/1999/xlink">
    <!-- Generator: Sketch 48.2 (47327) - http://www.bohemiancoding.com/sketch -->
    <title>unchecked</title>
    <desc>Created with Sketch.</desc>
    <defs></defs>
    <g id="Page-1" stroke="none" stroke-width="1" fill="none" fill-rule="evenodd">
        <g id="unchecked" fill="#9B9B9B" fill-rule="nonzero" stroke="#9B9B9B" stroke-width="9">
            <g id="checkbox-ticked" transform="translate(20.000000, 21.000000)">
                <path d="M311.688131,156.53819 C305.44036,156.53819 300.376263,161.603164 300.376263,167.849995 L300.376263,300.37639 L22.6237371,300.37639 L22.6237371,22.6236104 L245.757132,22.6236104 C252.004903,22.6236104 257.069,17.5586365 257.069,11.3118052 C257.069,5.06497389 252.004903,0 245.757132,0 L11.3118686,0 C5.06500227,0 0,5.06497389 0,11.3118052 L0,311.688195 C0,317.935026 5.06500227,323 11.3118686,323 L311.688131,323 C317.934093,323 323,317.935026 323,311.688195 L323,167.849995 C323,161.603164 317.935903,156.53819 311.688131,156.53819 Z" id="Shape"></path>
            </g>
        </g>
    </g>
</svg>